<mxfile host="www.draw.io" modified="2020-03-03T11:34:14.940Z" agent="Mozilla/5.0 (Windows NT 6.1; Win64; x64) AppleWebKit/537.36 (KHTML, like Gecko) Chrome/80.0.3987.122 Safari/537.36" etag="VQ4bW60j60koEiwN_nJI" version="12.7.9" type="github">
  <diagram name="Page-1" id="03018318-947c-dd8e-b7a3-06fadd420f32">
    <mxGraphModel dx="2062" dy="1150" grid="1" gridSize="10" guides="1" tooltips="1" connect="1" arrows="1" fold="1" page="1" pageScale="1" pageWidth="1100" pageHeight="850" background="#ffffff" math="0" shadow="0">
      <root>
        <mxCell id="0" />
        <mxCell id="1" parent="0" />
        <mxCell id="677b7b8949515195-1" value="" style="whiteSpace=wrap;html=1;rounded=0;shadow=0;labelBackgroundColor=none;strokeColor=#000000;strokeWidth=1;fillColor=none;fontFamily=Verdana;fontSize=12;fontColor=#000000;align=center;comic=1;" parent="1" vertex="1">
          <mxGeometry x="20" y="20" width="1060" height="810" as="geometry" />
        </mxCell>
        <mxCell id="677b7b8949515195-8" value="" style="whiteSpace=wrap;html=1;rounded=0;shadow=0;labelBackgroundColor=none;strokeWidth=1;fillColor=#e1d5e7;fontFamily=Verdana;fontSize=12;align=center;comic=1;strokeColor=#9673a6;" parent="1" vertex="1">
          <mxGeometry x="40" y="351.5" width="110" height="373" as="geometry" />
        </mxCell>
        <mxCell id="677b7b8949515195-27" value="从&quot;地址3&quot;取一个数放CPU里" style="text;html=1;points=[];align=left;verticalAlign=top;spacingTop=-4;fontSize=18;fontFamily=Verdana" parent="1" vertex="1">
          <mxGeometry x="157" y="363" width="170" height="20" as="geometry" />
        </mxCell>
        <mxCell id="677b7b8949515195-28" value="从&quot;地址4&quot;取一个数放CPU里" style="text;html=1;points=[];align=left;verticalAlign=top;spacingTop=-4;fontSize=18;fontFamily=Verdana" parent="1" vertex="1">
          <mxGeometry x="157" y="399" width="170" height="20" as="geometry" />
        </mxCell>
        <mxCell id="677b7b8949515195-29" value="将两个数相减" style="text;html=1;points=[];align=left;verticalAlign=top;spacingTop=-4;fontSize=18;fontFamily=Verdana" parent="1" vertex="1">
          <mxGeometry x="157" y="434" width="170" height="20" as="geometry" />
        </mxCell>
        <mxCell id="677b7b8949515195-30" value="将结果放到&quot;地址5&quot;" style="text;html=1;points=[];align=left;verticalAlign=top;spacingTop=-4;fontSize=18;fontFamily=Verdana" parent="1" vertex="1">
          <mxGeometry x="157" y="470" width="170" height="20" as="geometry" />
        </mxCell>
        <mxCell id="677b7b8949515195-31" value="..." style="text;html=1;points=[];align=left;verticalAlign=top;spacingTop=-4;fontSize=18;fontFamily=Verdana" parent="1" vertex="1">
          <mxGeometry x="157" y="577" width="170" height="20" as="geometry" />
        </mxCell>
        <mxCell id="677b7b8949515195-32" value="..." style="text;html=1;points=[];align=left;verticalAlign=top;spacingTop=-4;fontSize=18;fontFamily=Verdana" parent="1" vertex="1">
          <mxGeometry x="157" y="613" width="170" height="20" as="geometry" />
        </mxCell>
        <mxCell id="677b7b8949515195-33" value="..." style="text;html=1;points=[];align=left;verticalAlign=top;spacingTop=-4;fontSize=18;fontFamily=Verdana" parent="1" vertex="1">
          <mxGeometry x="157" y="656" width="170" height="20" as="geometry" />
        </mxCell>
        <mxCell id="677b7b8949515195-39" value="将&quot;地址5&quot;的数据(25)传入&quot;打印函数&quot;" style="text;html=1;points=[];align=left;verticalAlign=top;spacingTop=-4;fontSize=18;fontFamily=Verdana" parent="1" vertex="1">
          <mxGeometry x="157" y="506" width="170" height="20" as="geometry" />
        </mxCell>
        <mxCell id="R9MmAXvPLAt7legj11qn-2" value="&lt;font style=&quot;font-size: 22px&quot;&gt;内存&lt;/font&gt;" style="whiteSpace=wrap;html=1;rounded=0;shadow=0;labelBackgroundColor=none;strokeWidth=1;fillColor=#dae8fc;fontFamily=Verdana;fontSize=12;align=center;comic=1;strokeColor=#6c8ebf;" parent="1" vertex="1">
          <mxGeometry x="860" y="311.5" width="110" height="400" as="geometry" />
        </mxCell>
        <mxCell id="R9MmAXvPLAt7legj11qn-3" value="地址1" style="text;html=1;points=[];align=left;verticalAlign=top;spacingTop=-4;fontSize=14;fontFamily=Verdana" parent="1" vertex="1">
          <mxGeometry x="880" y="346.5" width="70" height="20" as="geometry" />
        </mxCell>
        <mxCell id="R9MmAXvPLAt7legj11qn-4" value="地址2" style="text;html=1;points=[];align=left;verticalAlign=top;spacingTop=-4;fontSize=14;fontFamily=Verdana" parent="1" vertex="1">
          <mxGeometry x="880" y="378.5" width="70" height="20" as="geometry" />
        </mxCell>
        <mxCell id="R9MmAXvPLAt7legj11qn-5" value="地址3" style="text;html=1;points=[];align=left;verticalAlign=top;spacingTop=-4;fontSize=14;fontFamily=Verdana" parent="1" vertex="1">
          <mxGeometry x="880" y="414.5" width="70" height="20" as="geometry" />
        </mxCell>
        <mxCell id="R9MmAXvPLAt7legj11qn-6" value="地址4" style="text;html=1;points=[];align=left;verticalAlign=top;spacingTop=-4;fontSize=14;fontFamily=Verdana" parent="1" vertex="1">
          <mxGeometry x="880" y="450.5" width="60" height="20" as="geometry" />
        </mxCell>
        <mxCell id="R9MmAXvPLAt7legj11qn-7" value="地址1GB" style="text;html=1;points=[];align=left;verticalAlign=top;spacingTop=-4;fontSize=14;fontFamily=Verdana" parent="1" vertex="1">
          <mxGeometry x="880" y="671.5" width="60" height="20" as="geometry" />
        </mxCell>
        <mxCell id="R9MmAXvPLAt7legj11qn-8" value="地址5" style="text;html=1;points=[];align=left;verticalAlign=top;spacingTop=-4;fontSize=14;fontFamily=Verdana" parent="1" vertex="1">
          <mxGeometry x="880" y="480" width="40" height="20" as="geometry" />
        </mxCell>
        <mxCell id="R9MmAXvPLAt7legj11qn-9" value="..." style="text;html=1;points=[];align=left;verticalAlign=top;spacingTop=-4;fontSize=14;fontFamily=Verdana" parent="1" vertex="1">
          <mxGeometry x="890" y="563.5" width="50" height="20" as="geometry" />
        </mxCell>
        <mxCell id="R9MmAXvPLAt7legj11qn-10" value="..." style="text;html=1;points=[];align=left;verticalAlign=top;spacingTop=-4;fontSize=14;fontFamily=Verdana" parent="1" vertex="1">
          <mxGeometry x="890" y="595.5" width="50" height="20" as="geometry" />
        </mxCell>
        <mxCell id="R9MmAXvPLAt7legj11qn-11" value="..." style="text;html=1;points=[];align=left;verticalAlign=top;spacingTop=-4;fontSize=14;fontFamily=Verdana" parent="1" vertex="1">
          <mxGeometry x="890" y="621.5" width="50" height="20" as="geometry" />
        </mxCell>
        <mxCell id="R9MmAXvPLAt7legj11qn-12" value="CPU" style="whiteSpace=wrap;html=1;rounded=0;shadow=0;labelBackgroundColor=none;strokeWidth=1;fontFamily=Verdana;fontSize=28;align=center;comic=1;" parent="1" vertex="1">
          <mxGeometry x="480" y="511.5" width="160" height="160" as="geometry" />
        </mxCell>
        <mxCell id="R9MmAXvPLAt7legj11qn-17" style="edgeStyle=orthogonalEdgeStyle;rounded=0;orthogonalLoop=1;jettySize=auto;html=1;shadow=1;jumpSize=10;" parent="1" source="R9MmAXvPLAt7legj11qn-13" target="R9MmAXvPLAt7legj11qn-16" edge="1">
          <mxGeometry relative="1" as="geometry" />
        </mxCell>
        <mxCell id="R9MmAXvPLAt7legj11qn-13" value="" style="whiteSpace=wrap;html=1;rounded=0;shadow=0;labelBackgroundColor=none;strokeWidth=1;fillColor=#d5e8d4;fontFamily=Verdana;fontSize=12;align=center;comic=1;strokeColor=#82b366;" parent="1" vertex="1">
          <mxGeometry x="710" y="60" width="180" height="180" as="geometry" />
        </mxCell>
        <mxCell id="R9MmAXvPLAt7legj11qn-15" value="{&lt;br&gt;&amp;nbsp; int mm = 31;&lt;br&gt;&amp;nbsp; int ll= 56;&lt;br&gt;&amp;nbsp; int cha = ll - mm;&lt;br&gt;&amp;nbsp; printf(&quot;%d&quot;,cha);&lt;br&gt;}" style="text;html=1;points=[];align=left;verticalAlign=top;spacingTop=-4;fontSize=14;fontFamily=Verdana" parent="1" vertex="1">
          <mxGeometry x="720" y="100" width="160" height="90" as="geometry" />
        </mxCell>
        <mxCell id="R9MmAXvPLAt7legj11qn-18" style="edgeStyle=orthogonalEdgeStyle;rounded=0;orthogonalLoop=1;jettySize=auto;html=1;entryX=0.545;entryY=0.024;entryDx=0;entryDy=0;entryPerimeter=0;shadow=1;" parent="1" source="909S9RIOWavVKljGzQq5-8" target="677b7b8949515195-8" edge="1">
          <mxGeometry relative="1" as="geometry" />
        </mxCell>
        <mxCell id="909S9RIOWavVKljGzQq5-10" value="&lt;b&gt;&lt;font style=&quot;font-size: 20px&quot;&gt;开始执行!!!&lt;/font&gt;&lt;/b&gt;" style="text;html=1;align=center;verticalAlign=middle;resizable=0;points=[];labelBackgroundColor=#ffffff;" vertex="1" connectable="0" parent="R9MmAXvPLAt7legj11qn-18">
          <mxGeometry x="-0.4548" y="-15" relative="1" as="geometry">
            <mxPoint as="offset" />
          </mxGeometry>
        </mxCell>
        <mxCell id="909S9RIOWavVKljGzQq5-9" style="edgeStyle=orthogonalEdgeStyle;rounded=0;orthogonalLoop=1;jettySize=auto;html=1;" edge="1" parent="1" source="R9MmAXvPLAt7legj11qn-16" target="909S9RIOWavVKljGzQq5-8">
          <mxGeometry relative="1" as="geometry" />
        </mxCell>
        <mxCell id="R9MmAXvPLAt7legj11qn-16" value="编译器程序" style="whiteSpace=wrap;html=1;rounded=0;shadow=0;labelBackgroundColor=none;strokeWidth=1;fontFamily=Verdana;fontSize=28;align=center;comic=1;" parent="1" vertex="1">
          <mxGeometry x="430" y="70" width="160" height="160" as="geometry" />
        </mxCell>
        <mxCell id="R9MmAXvPLAt7legj11qn-22" value="&quot;打印函数&quot;把地址5打印到屏幕" style="text;html=1;points=[];align=left;verticalAlign=top;spacingTop=-4;fontSize=18;fontFamily=Verdana" parent="1" vertex="1">
          <mxGeometry x="157" y="550" width="170" height="20" as="geometry" />
        </mxCell>
        <mxCell id="R9MmAXvPLAt7legj11qn-23" value="11001..." style="text;html=1;points=[];align=left;verticalAlign=top;spacingTop=-4;fontSize=18;fontFamily=Verdana;fillColor=#ffe6cc;strokeColor=#d79b00;" parent="1" vertex="1">
          <mxGeometry x="50" y="363" width="90" height="20" as="geometry" />
        </mxCell>
        <mxCell id="R9MmAXvPLAt7legj11qn-24" value="11011..." style="text;html=1;points=[];align=left;verticalAlign=top;spacingTop=-4;fontSize=18;fontFamily=Verdana;fillColor=#ffe6cc;strokeColor=#d79b00;" parent="1" vertex="1">
          <mxGeometry x="50" y="399" width="90" height="20" as="geometry" />
        </mxCell>
        <mxCell id="R9MmAXvPLAt7legj11qn-25" value="10011..." style="text;html=1;points=[];align=left;verticalAlign=top;spacingTop=-4;fontSize=18;fontFamily=Verdana;fillColor=#ffe6cc;strokeColor=#d79b00;" parent="1" vertex="1">
          <mxGeometry x="50" y="439" width="90" height="20" as="geometry" />
        </mxCell>
        <mxCell id="R9MmAXvPLAt7legj11qn-26" value="01001..." style="text;html=1;points=[];align=left;verticalAlign=top;spacingTop=-4;fontSize=18;fontFamily=Verdana;fillColor=#ffe6cc;strokeColor=#d79b00;" parent="1" vertex="1">
          <mxGeometry x="50" y="471" width="90" height="20" as="geometry" />
        </mxCell>
        <mxCell id="R9MmAXvPLAt7legj11qn-27" value="01101..." style="text;html=1;points=[];align=left;verticalAlign=top;spacingTop=-4;fontSize=18;fontFamily=Verdana;fillColor=#ffe6cc;strokeColor=#d79b00;" parent="1" vertex="1">
          <mxGeometry x="50" y="507" width="90" height="20" as="geometry" />
        </mxCell>
        <mxCell id="R9MmAXvPLAt7legj11qn-28" value="01000..." style="text;html=1;points=[];align=left;verticalAlign=top;spacingTop=-4;fontSize=18;fontFamily=Verdana;fillColor=#ffe6cc;strokeColor=#d79b00;" parent="1" vertex="1">
          <mxGeometry x="50" y="546" width="90" height="20" as="geometry" />
        </mxCell>
        <mxCell id="R9MmAXvPLAt7legj11qn-29" value="11101..." style="text;html=1;points=[];align=left;verticalAlign=top;spacingTop=-4;fontSize=18;fontFamily=Verdana;fillColor=#ffe6cc;strokeColor=#d79b00;" parent="1" vertex="1">
          <mxGeometry x="50" y="580" width="90" height="20" as="geometry" />
        </mxCell>
        <mxCell id="R9MmAXvPLAt7legj11qn-30" value="01011..." style="text;html=1;points=[];align=left;verticalAlign=top;spacingTop=-4;fontSize=18;fontFamily=Verdana;fillColor=#ffe6cc;strokeColor=#d79b00;" parent="1" vertex="1">
          <mxGeometry x="50" y="613" width="90" height="20" as="geometry" />
        </mxCell>
        <mxCell id="R9MmAXvPLAt7legj11qn-31" value="01011..." style="text;html=1;points=[];align=left;verticalAlign=top;spacingTop=-4;fontSize=18;fontFamily=Verdana;fillColor=#ffe6cc;strokeColor=#d79b00;" parent="1" vertex="1">
          <mxGeometry x="50" y="656" width="90" height="20" as="geometry" />
        </mxCell>
        <mxCell id="R9MmAXvPLAt7legj11qn-32" value="某小朋友的程序" style="rounded=1;whiteSpace=wrap;html=1;fontSize=18;" parent="1" vertex="1">
          <mxGeometry x="730" y="240" width="140" height="50" as="geometry" />
        </mxCell>
        <mxCell id="909S9RIOWavVKljGzQq5-4" style="edgeStyle=orthogonalEdgeStyle;rounded=0;orthogonalLoop=1;jettySize=auto;html=1;" edge="1" parent="1" source="909S9RIOWavVKljGzQq5-1" target="R9MmAXvPLAt7legj11qn-5">
          <mxGeometry relative="1" as="geometry" />
        </mxCell>
        <mxCell id="909S9RIOWavVKljGzQq5-1" value="mm" style="text;html=1;points=[];align=left;verticalAlign=top;spacingTop=-4;fontSize=18;fontFamily=Verdana" vertex="1" parent="1">
          <mxGeometry x="730" y="414.5" width="60" height="20" as="geometry" />
        </mxCell>
        <mxCell id="909S9RIOWavVKljGzQq5-5" style="edgeStyle=orthogonalEdgeStyle;rounded=0;orthogonalLoop=1;jettySize=auto;html=1;entryX=0;entryY=0.675;entryDx=0;entryDy=0;entryPerimeter=0;" edge="1" parent="1" source="909S9RIOWavVKljGzQq5-2" target="R9MmAXvPLAt7legj11qn-6">
          <mxGeometry relative="1" as="geometry" />
        </mxCell>
        <mxCell id="909S9RIOWavVKljGzQq5-2" value="ll" style="text;html=1;points=[];align=left;verticalAlign=top;spacingTop=-4;fontSize=18;fontFamily=Verdana" vertex="1" parent="1">
          <mxGeometry x="740" y="449" width="50" height="21" as="geometry" />
        </mxCell>
        <mxCell id="909S9RIOWavVKljGzQq5-6" style="edgeStyle=orthogonalEdgeStyle;rounded=0;orthogonalLoop=1;jettySize=auto;html=1;" edge="1" parent="1" source="909S9RIOWavVKljGzQq5-3" target="R9MmAXvPLAt7legj11qn-8">
          <mxGeometry relative="1" as="geometry" />
        </mxCell>
        <mxCell id="909S9RIOWavVKljGzQq5-3" value="cha" style="text;html=1;points=[];align=left;verticalAlign=top;spacingTop=-4;fontSize=18;fontFamily=Verdana" vertex="1" parent="1">
          <mxGeometry x="740" y="485" width="50" height="21" as="geometry" />
        </mxCell>
        <mxCell id="909S9RIOWavVKljGzQq5-8" value="" style="image;html=1;labelBackgroundColor=#ffffff;image=img/lib/clip_art/general/Full_Folder_128x128.png" vertex="1" parent="1">
          <mxGeometry x="80" y="77.5" width="170" height="145" as="geometry" />
        </mxCell>
      </root>
    </mxGraphModel>
  </diagram>
</mxfile>
